<svg xmlns="http://www.w3.org/2000/svg" width="34" height="26" viewBox="0 0 34 26" fill="none">
  <path d="M27 17C28.0609 17 29.0783 16.5786 29.8284 15.8284C30.5786 15.0783 31 14.0609 31 13C31 11.9391 30.5786 10.9217 29.8284 10.1716C29.0783 9.42143 28.0609 9 27 9C25.9391 9 24.9217 9.42143 24.1716 10.1716C23.4214 10.9217 23 11.9391 23 13C23 14.0609 23.4214 15.0783 24.1716 15.8284C24.9217 16.5786 25.9391 17 27 17ZM25.5719 18.5C22.4937 18.5 20 20.9937 20 24.0719C20 24.5844 20.4156 25 20.9281 25H33.0719C33.5844 25 34 24.5844 34 24.0719C34 20.9937 31.5063 18.5 28.4281 18.5H25.5719Z" fill="black"/>
  <path d="M1.45161 0C0.647177 0 0 0.647177 0 1.45161V4.35484C0 5.15927 0.647177 5.80645 1.45161 5.80645H4.35484C5.15927 5.80645 5.80645 5.15927 5.80645 4.35484V1.45161C5.80645 0.647177 5.15927 0 4.35484 0H1.45161ZM10.6452 0.967742C9.5746 0.967742 8.70968 1.83266 8.70968 2.90323C8.70968 3.97379 9.5746 4.83871 10.6452 4.83871H28.0645C29.1351 4.83871 30 3.97379 30 2.90323C30 1.83266 29.1351 0.967742 28.0645 0.967742H10.6452ZM10.6452 10.6452C9.5746 10.6452 8.70968 11.5101 8.70968 12.5806C8.70968 13.6512 9.5746 14.5161 10.6452 14.5161H20.0645C21.1351 14.5161 22 13.6512 22 12.5806C22 11.5101 21.1351 10.6452 20.0645 10.6452H10.6452ZM10.6452 20.3226C9.5746 20.3226 8.70968 21.1875 8.70968 22.2581C8.70968 23.3286 9.5746 24.1936 10.6452 24.1936H16.0645C17.1351 24.1936 18 23.3286 18 22.2581C18 21.1875 17.1351 20.3226 16.0645 20.3226H10.6452ZM0 11.129V14.0323C0 14.8367 0.647177 15.4839 1.45161 15.4839H4.35484C5.15927 15.4839 5.80645 14.8367 5.80645 14.0323V11.129C5.80645 10.3246 5.15927 9.67742 4.35484 9.67742H1.45161C0.647177 9.67742 0 10.3246 0 11.129ZM1.45161 19.3548C0.647177 19.3548 0 20.002 0 20.8065V23.7097C0 24.5141 0.647177 25.1613 1.45161 25.1613H4.35484C5.15927 25.1613 5.80645 24.5141 5.80645 23.7097V20.8065C5.80645 20.002 5.15927 19.3548 4.35484 19.3548H1.45161Z" fill="black"/>
</svg>